<?xml version="1.0" encoding="utf-8"?>
<!-- Generator: Adobe Illustrator 27.0.1, SVG Export Plug-In . SVG Version: 6.00 Build 0)  -->
<svg version="1.1" id="Layer_1" xmlns="http://www.w3.org/2000/svg" xmlns:xlink="http://www.w3.org/1999/xlink" x="0px" y="0px"
	 viewBox="0 0 500 323.4" style="enable-background:new 0 0 500 323.4;" xml:space="preserve">
<style type="text/css">
	.st0{fill:#BF45FF;}
	.st1{fill:#833F91;}
	.st2{fill:#DC3F35;}
	.st3{fill:#FFE527;}
	.st4{fill:#FBBA00;}
	.st5{fill:#F0836C;}
	.st6{fill:#A9D12C;}
	.st7{fill:#5EBC31;}
	.st8{fill:#25A068;}
	.st9{fill:#1777E0;}
	.st10{fill:#2A50F3;}
	.st11{fill:#55BAFF;}
	.st12{fill:#6CFFEA;}
	.st13{fill:#39E1F6;}
	.st14{fill:#207A71;}
	.st15{fill:#3E3A45;}
</style>
<g>
	<path class="st0" d="M223.2,179.9c-3.1-1.9-6-4.1-8.7-6.5c-2.9-2.5-5.5-5.3-7.9-8.4c-2.5-3.2-4.7-6.6-6.6-10.2l-31.1,6.6
		c3.3,5.5,7,10.6,11.2,15.4c3.9,4.4,8.2,8.5,12.8,12.2c4.3,3.4,8.9,6.5,13.7,9.3c4.5,2.5,9.2,4.8,14.1,6.6l11.7-20.3
		C229.2,183.3,226.1,181.7,223.2,179.9z"/>
	<path class="st1" d="M271.2,187.7c-3.2,0.7-6.4,1.2-9.7,1.5c-1.6,0.1-3.2,0.2-4.9,0.2c-1.6,0-3.3-0.1-4.9-0.2
		c-3.3-0.3-6.6-0.8-9.7-1.5c-3.3-0.8-6.5-1.8-9.6-3.1l-11.7,20.3c4.6,1.7,9.4,3.1,14.3,4.2c4.7,1,9.5,1.7,14.4,2
		c2.4,0.2,4.8,0.3,7.2,0.3c2.4,0,4.8-0.1,7.2-0.3c4.9-0.3,9.7-1,14.4-2L271.2,187.7z"/>
	<path class="st2" d="M195.3,142.8c-1.2-4.3-2-8.8-2.2-13.5c-0.1-1.1-0.1-2.3-0.1-3.4c0-3.7,0.3-7.4,1-11l-38.7-17.2
		c-0.4,3.9-0.7,7.8-0.7,11.8c0,4,0.3,7.9,0.7,11.8c0.9,7.5,2.5,14.7,4.9,21.5c2.3,6.5,5.2,12.8,8.6,18.6l31.1-6.6
		C198.1,151,196.5,147,195.3,142.8z"/>
	<path class="st3" d="M321.3,30.7c-7.1-5.9-15-10.7-23.6-14.5c-8.5-3.7-17.5-6.4-27-7.7L265,62.9c5.6,0.7,11.1,2.2,16.2,4.3
		c5.1,2.2,9.9,5,14.3,8.3c4.3,3.3,8.1,7.1,11.4,11.4l32.9-36.5C334.5,43.1,328.3,36.4,321.3,30.7z"/>
	<path class="st4" d="M256.6,7.5c-4.8,0-9.5,0.4-14.1,1c-9.5,1.3-18.6,3.9-27,7.7c-8.5,3.8-16.5,8.7-23.6,14.5l25.9,44.9
		c4.3-3.4,9.1-6.2,14.3-8.3c5.1-2.1,10.5-3.6,16.1-4.3c2.7-0.4,5.5-0.6,8.4-0.6c2.8,0,5.6,0.2,8.4,0.6l5.7-54.4
		C266.1,7.8,261.4,7.5,256.6,7.5z"/>
	<path class="st5" d="M191.9,30.7c-7,5.7-13.2,12.4-18.4,19.8c-5,7.1-9.2,14.8-12.3,23c-2.9,7.7-4.9,15.8-5.9,24.2l38.7,17.2
		c0.9-5,2.3-9.9,4.3-14.5c2.1-4.8,4.8-9.4,8-13.5c3.3-4.3,7.2-8.1,11.4-11.4L191.9,30.7z"/>
	<path class="st6" d="M264,165.6c-1.6,0.5-3.2,0.9-4.9,1c-0.8,0.1-1.7,0.1-2.5,0.1c-0.8,0-1.7,0-2.5-0.1c-1.7-0.2-3.3-0.5-4.9-1
		c-1.6-0.5-3.1-1.2-4.6-2c-1.5-0.8-2.8-1.8-4-3l-7.3,8.1c2,1.4,4,2.6,6.2,3.7c2.1,1,4.4,1.8,6.7,2.5c2.2,0.6,4.5,1,6.9,1.2
		c1.2,0.1,2.3,0.2,3.5,0.2c1.2,0,2.3-0.1,3.5-0.2c2.4-0.2,4.7-0.6,6.9-1.2L264,165.6z"/>
	<path class="st7" d="M237.2,156.9c-1-1.3-1.8-2.8-2.5-4.3c-0.7-1.5-1.2-3.1-1.6-4.8c-0.3-1.6-0.5-3.3-0.5-5c0-1.7,0.2-3.4,0.5-5
		l-16.5-3.5c0,0.6,0,1.3,0,1.9c0,2.2,0.2,4.4,0.5,6.6c0.5,2.7,1.2,5.4,2.2,7.9c1,2.5,2.2,4.9,3.6,7.1c1.4,2.2,3,4.2,4.7,6
		c1.7,1.8,3.6,3.4,5.6,4.9l7.3-8.1C239.3,159.5,238.2,158.2,237.2,156.9z"/>
	<path class="st8" d="M242.3,98.9c-3,1.2-5.9,2.7-8.5,4.5c-2.6,1.8-5,3.9-7.1,6.3c-2.1,2.3-3.9,4.8-5.3,7.6
		c-1.4,2.6-2.6,5.4-3.4,8.4c-0.8,2.8-1.2,5.7-1.4,8.7l16.5,3.5c0.4-1.7,0.9-3.2,1.6-4.8c0.7-1.5,1.5-3,2.5-4.3
		c1-1.4,2.1-2.6,3.4-3.7c1.2-1.1,2.6-2.1,4-3c1.4-0.8,3-1.5,4.6-2L242.3,98.9z"/>
	<path class="st9" d="M233.3,168.7c-2-1.5-3.9-3.1-5.6-4.9c-1.8-1.8-3.4-3.9-4.7-6c-1.4-2.2-2.6-4.6-3.6-7.1l-19.3,4.1
		c1.9,3.6,4.1,7.1,6.6,10.2c2.4,3,5,5.8,7.9,8.4c2.7,2.4,5.6,4.6,8.7,6.5c2.9,1.8,6,3.4,9.3,4.7l7.1-12.3
		C237.3,171.3,235.2,170.1,233.3,168.7z"/>
	<path class="st10" d="M267,174.8c-2.2,0.6-4.5,1-6.9,1.2c-1.2,0.1-2.3,0.2-3.5,0.2c-1.2,0-2.3-0.1-3.5-0.2
		c-2.4-0.2-4.7-0.6-6.9-1.2c-2.3-0.6-4.5-1.4-6.7-2.5l-7.1,12.3c3.1,1.3,6.3,2.3,9.6,3.1c3.2,0.7,6.4,1.2,9.7,1.5
		c1.6,0.1,3.2,0.2,4.9,0.2c1.6,0,3.3-0.1,4.9-0.2c3.3-0.3,6.6-0.8,9.7-1.5L267,174.8z"/>
	<path class="st11" d="M216.6,136.2c0-0.6,0-1.3,0-1.9c0.1-3,0.6-5.9,1.4-8.7c0.8-2.9,1.9-5.8,3.4-8.4l-23.1-16.8
		c-2,4.6-3.5,9.4-4.3,14.5c-0.6,3.6-1,7.2-1,11c0,1.1,0,2.3,0.1,3.4c0.2,4.6,1,9.2,2.2,13.5c1.2,4.2,2.7,8.2,4.7,12l19.3-4.1
		c-1-2.5-1.7-5.2-2.2-7.9C216.8,140.6,216.6,138.5,216.6,136.2z"/>
	<path class="st12" d="M295.4,75.5c-4.3-3.4-9.1-6.2-14.3-8.3c-5.1-2.1-10.5-3.6-16.2-4.3c-2.7-0.4-5.5-0.6-8.4-0.6
		c-2.8,0-5.6,0.2-8.4,0.6l3.5,33.7c1.6-0.2,3.2-0.3,4.9-0.3c1.6,0,3.3,0.1,4.9,0.3c3.3,0.4,6.4,1.2,9.4,2.3c3,1.2,5.9,2.7,8.5,4.5
		c2.6,1.8,5,3.9,7.1,6.3L306.9,87C303.5,82.7,299.7,78.9,295.4,75.5z"/>
	<path class="st13" d="M248.2,62.9c-5.6,0.7-11.1,2.2-16.1,4.3c-5.1,2.2-9.9,5-14.3,8.3c-4.3,3.3-8.1,7.1-11.4,11.4
		c-3.2,4.1-5.9,8.6-8,13.5l23.1,16.8c1.5-2.7,3.3-5.3,5.3-7.6c2.1-2.4,4.5-4.5,7.1-6.3c2.6-1.8,5.5-3.3,8.5-4.5
		c3-1.1,6.1-1.9,9.4-2.3L248.2,62.9z"/>
	<path class="st14" d="M279.4,103.4c-2.6-1.8-5.5-3.3-8.5-4.5c-3-1.1-6.1-1.9-9.4-2.3c-1.6-0.2-3.2-0.3-4.9-0.3
		c-1.6,0-3.3,0.1-4.9,0.3c-3.3,0.4-6.4,1.2-9.4,2.3l6.9,21.1c1.6-0.5,3.2-0.9,4.9-1c0.8-0.1,1.7-0.1,2.5-0.1c0.8,0,1.7,0,2.5,0.1
		c1.7,0.2,3.3,0.5,4.9,1c1.6,0.5,3.1,1.2,4.6,2c1.5,0.8,2.8,1.8,4,3l13.8-15.3C284.3,107.3,282,105.2,279.4,103.4z"/>
</g>
<rect x="332.1" y="237.1" class="st15" width="34.5" height="10.2"/>
<g>
	<path class="st15" d="M254.6,237.2h-35.1c-12.3,0-22.2,10.2-22.2,22.7v28.7h11.1v-28.7c0-6.2,5-11.3,11.1-11.3h35.1
		c6.1,0,11.1,5.1,11.1,11.3v28.7h11.1v-28.7C276.8,247.3,266.8,237.2,254.6,237.2z"/>
	<path class="st15" d="M465.6,237.2h-26.5h-5.7H428v29.6c0,6.1-5,11.1-11.1,11.1h-11.9c-6.1,0-11.1-5-11.1-11.1v-29.6h-11.1v29.6
		c0,12.3,10,22.2,22.2,22.2h11.9c12.3,0,22.2-10,22.2-22.2v-18.7h26.4c6.1,0,11.1,5,11.1,11.1v29.1h11.1v-29.1
		C487.8,247,477.9,237.2,465.6,237.2z"/>
	<path class="st15" d="M160.2,259.5v29.1h11.1v-29.1c0-6.1,5-11.1,11.1-11.1h7.4v-11.1h-7.4C170.2,237.2,160.2,247.2,160.2,259.5z"
		/>
	<rect x="293" y="237.2" class="st15" width="11.1" height="51.4"/>
	<path class="st15" d="M53.6,237.2H13.3v0H12v78.2h11.1v-26.8h30.5c11.6,0,21-9.5,21-21.1v-9.3C74.6,246.6,65.1,237.2,53.6,237.2z
		 M63.5,267.5c0,5.5-4.4,9.9-9.9,9.9H23.1v-29.1h30.5c5.5,0,9.9,4.5,9.9,9.9V267.5z"/>
	<path class="st15" d="M142,237.2h-36.6c-12.3,0-22.2,10-22.2,22.3v7.1c0,6,2.3,11.5,6.6,15.6c4.2,4.1,9.9,6.3,16.1,6.3
		c0.2,0,0.5,0,0.7,0h28.8v0h11.1v-51.4L142,237.2L142,237.2z M135.3,277.4h-28.8l-0.2,0c-3.4,0.1-6.6-1-8.8-3.2
		c-2.1-2-3.2-4.7-3.2-7.6v-7.1c0-6.1,5-11.1,11.1-11.1h29.9V277.4z"/>
	<path class="st15" d="M237.9,262.1c-5.1,0-9.3,4.2-9.3,9.3c0,5.1,4.2,9.3,9.3,9.3c5.1,0,9.3-4.2,9.3-9.3
		C247.2,266.3,243,262.1,237.9,262.1z"/>
	<path class="st15" d="M357.3,257.8L357.3,257.8l-0.5,0c0,0-0.1,0-0.1,0l0,0h-24.3l0,0c-2.9,0-5.2-2.3-5.2-5.2
		c0-2.9,2.4-5.3,5.3-5.3l0.1-10.1c-8.5,0-15.4,6.8-15.4,15.4c0,8.4,6.7,15.3,15.1,15.4v0h24.9c2.9,0.1,5.5,2.4,5.5,5.2
		c0,2.8-2.3,5.1-5.1,5.2v0h-36.4v10.2h36.4v0c8.3-0.1,15-7,15-15.4C372.6,264.8,365.5,258.1,357.3,257.8z"/>
</g>
</svg>
